<svg xmlns="http://www.w3.org/2000/svg" fill="none" viewBox="12 2 40 40">
<rect x="12" y="2" width="40" height="40" rx="12" fill="#C0C1FF"/>
<g filter="url(#filter0_dd_230_329)">
<rect x="12" y="2" width="40" height="40" rx="12" fill="white" fill-opacity="0.01" shape-rendering="crispEdges"/>
</g>
<path d="M23 24.6998C22.8 24.6998 22.6333 24.6331 22.5 24.4998C22.3667 24.3665 22.3 24.1998 22.3 23.9998C22.3 23.7998 22.3667 23.6331 22.5 23.4998C22.6333 23.3665 22.8 23.2998 23 23.2998C23.2 23.2998 23.3667 23.3665 23.5 23.4998C23.6333 23.6331 23.7 23.7998 23.7 23.9998C23.7 24.1998 23.6333 24.3665 23.5 24.4998C23.3667 24.6331 23.2 24.6998 23 24.6998V24.6998M23 20.6998C22.8 20.6998 22.6333 20.6331 22.5 20.4998C22.3667 20.3665 22.3 20.1998 22.3 19.9998C22.3 19.7998 22.3667 19.6331 22.5 19.4998C22.6333 19.3665 22.8 19.2998 23 19.2998C23.2 19.2998 23.3667 19.3665 23.5 19.4998C23.6333 19.6331 23.7 19.7998 23.7 19.9998C23.7 20.1998 23.6333 20.3665 23.5 20.4998C23.3667 20.6331 23.2 20.6998 23 20.6998V20.6998M26 29.1998C25.6667 29.1998 25.3833 29.0831 25.15 28.8498C24.9167 28.6165 24.8 28.3331 24.8 27.9998C24.8 27.6665 24.9167 27.3831 25.15 27.1498C25.3833 26.9165 25.6667 26.7998 26 26.7998C26.3333 26.7998 26.6167 26.9165 26.85 27.1498C27.0833 27.3831 27.2 27.6665 27.2 27.9998C27.2 28.3331 27.0833 28.6165 26.85 28.8498C26.6167 29.0831 26.3333 29.1998 26 29.1998V29.1998M26 25.1998C25.6667 25.1998 25.3833 25.0831 25.15 24.8498C24.9167 24.6165 24.8 24.3331 24.8 23.9998C24.8 23.6665 24.9167 23.3831 25.15 23.1498C25.3833 22.9165 25.6667 22.7998 26 22.7998C26.3333 22.7998 26.6167 22.9165 26.85 23.1498C27.0833 23.3831 27.2 23.6665 27.2 23.9998C27.2 24.3331 27.0833 24.6165 26.85 24.8498C26.6167 25.0831 26.3333 25.1998 26 25.1998V25.1998M26 21.1998C25.6667 21.1998 25.3833 21.0831 25.15 20.8498C24.9167 20.6165 24.8 20.3331 24.8 19.9998C24.8 19.6665 24.9167 19.3831 25.15 19.1498C25.3833 18.9165 25.6667 18.7998 26 18.7998C26.3333 18.7998 26.6167 18.9165 26.85 19.1498C27.0833 19.3831 27.2 19.6665 27.2 19.9998C27.2 20.3331 27.0833 20.6165 26.85 20.8498C26.6167 21.0831 26.3333 21.1998 26 21.1998V21.1998M26 17.1998C25.6667 17.1998 25.3833 17.0831 25.15 16.8498C24.9167 16.6165 24.8 16.3331 24.8 15.9998C24.8 15.6665 24.9167 15.3831 25.15 15.1498C25.3833 14.9165 25.6667 14.7998 26 14.7998C26.3333 14.7998 26.6167 14.9165 26.85 15.1498C27.0833 15.3831 27.2 15.6665 27.2 15.9998C27.2 16.3331 27.0833 16.6165 26.85 16.8498C26.6167 17.0831 26.3333 17.1998 26 17.1998V17.1998M30 25.6998C29.5167 25.6998 29.1125 25.5373 28.7875 25.2123C28.4625 24.8873 28.3 24.4831 28.3 23.9998C28.3 23.5165 28.4625 23.1123 28.7875 22.7873C29.1125 22.4623 29.5167 22.2998 30 22.2998C30.4833 22.2998 30.8875 22.4623 31.2125 22.7873C31.5375 23.1123 31.7 23.5165 31.7 23.9998C31.7 24.4831 31.5375 24.8873 31.2125 25.2123C30.8875 25.5373 30.4833 25.6998 30 25.6998V25.6998M30 21.6998C29.5167 21.6998 29.1125 21.5373 28.7875 21.2123C28.4625 20.8873 28.3 20.4831 28.3 19.9998C28.3 19.5165 28.4625 19.1123 28.7875 18.7873C29.1125 18.4623 29.5167 18.2998 30 18.2998C30.4833 18.2998 30.8875 18.4623 31.2125 18.7873C31.5375 19.1123 31.7 19.5165 31.7 19.9998C31.7 20.4831 31.5375 20.8873 31.2125 21.2123C30.8875 21.5373 30.4833 21.6998 30 21.6998V21.6998M30 29.1998C29.6667 29.1998 29.3833 29.0831 29.15 28.8498C28.9167 28.6165 28.8 28.3331 28.8 27.9998C28.8 27.6665 28.9167 27.3831 29.15 27.1498C29.3833 26.9165 29.6667 26.7998 30 26.7998C30.3333 26.7998 30.6167 26.9165 30.85 27.1498C31.0833 27.3831 31.2 27.6665 31.2 27.9998C31.2 28.3331 31.0833 28.6165 30.85 28.8498C30.6167 29.0831 30.3333 29.1998 30 29.1998V29.1998M30 17.1998C29.6667 17.1998 29.3833 17.0831 29.15 16.8498C28.9167 16.6165 28.8 16.3331 28.8 15.9998C28.8 15.6665 28.9167 15.3831 29.15 15.1498C29.3833 14.9165 29.6667 14.7998 30 14.7998C30.3333 14.7998 30.6167 14.9165 30.85 15.1498C31.0833 15.3831 31.2 15.6665 31.2 15.9998C31.2 16.3331 31.0833 16.6165 30.85 16.8498C30.6167 17.0831 30.3333 17.1998 30 17.1998V17.1998M30 31.6998C29.8 31.6998 29.6333 31.6331 29.5 31.4998C29.3667 31.3665 29.3 31.1998 29.3 30.9998C29.3 30.7998 29.3667 30.6331 29.5 30.4998C29.6333 30.3665 29.8 30.2998 30 30.2998C30.2 30.2998 30.3667 30.3665 30.5 30.4998C30.6333 30.6331 30.7 30.7998 30.7 30.9998C30.7 31.1998 30.6333 31.3665 30.5 31.4998C30.3667 31.6331 30.2 31.6998 30 31.6998V31.6998M30 13.6998C29.8 13.6998 29.6333 13.6331 29.5 13.4998C29.3667 13.3665 29.3 13.1998 29.3 12.9998C29.3 12.7998 29.3667 12.6331 29.5 12.4998C29.6333 12.3665 29.8 12.2998 30 12.2998C30.2 12.2998 30.3667 12.3665 30.5 12.4998C30.6333 12.6331 30.7 12.7998 30.7 12.9998C30.7 13.1998 30.6333 13.3665 30.5 13.4998C30.3667 13.6331 30.2 13.6998 30 13.6998V13.6998M34 25.6998C33.5167 25.6998 33.1125 25.5373 32.7875 25.2123C32.4625 24.8873 32.3 24.4831 32.3 23.9998C32.3 23.5165 32.4625 23.1123 32.7875 22.7873C33.1125 22.4623 33.5167 22.2998 34 22.2998C34.4833 22.2998 34.8875 22.4623 35.2125 22.7873C35.5375 23.1123 35.7 23.5165 35.7 23.9998C35.7 24.4831 35.5375 24.8873 35.2125 25.2123C34.8875 25.5373 34.4833 25.6998 34 25.6998V25.6998M34 21.6998C33.5167 21.6998 33.1125 21.5373 32.7875 21.2123C32.4625 20.8873 32.3 20.4831 32.3 19.9998C32.3 19.5165 32.4625 19.1123 32.7875 18.7873C33.1125 18.4623 33.5167 18.2998 34 18.2998C34.4833 18.2998 34.8875 18.4623 35.2125 18.7873C35.5375 19.1123 35.7 19.5165 35.7 19.9998C35.7 20.4831 35.5375 20.8873 35.2125 21.2123C34.8875 21.5373 34.4833 21.6998 34 21.6998V21.6998M34 29.1998C33.6667 29.1998 33.3833 29.0831 33.15 28.8498C32.9167 28.6165 32.8 28.3331 32.8 27.9998C32.8 27.6665 32.9167 27.3831 33.15 27.1498C33.3833 26.9165 33.6667 26.7998 34 26.7998C34.3333 26.7998 34.6167 26.9165 34.85 27.1498C35.0833 27.3831 35.2 27.6665 35.2 27.9998C35.2 28.3331 35.0833 28.6165 34.85 28.8498C34.6167 29.0831 34.3333 29.1998 34 29.1998V29.1998M34 17.1998C33.6667 17.1998 33.3833 17.0831 33.15 16.8498C32.9167 16.6165 32.8 16.3331 32.8 15.9998C32.8 15.6665 32.9167 15.3831 33.15 15.1498C33.3833 14.9165 33.6667 14.7998 34 14.7998C34.3333 14.7998 34.6167 14.9165 34.85 15.1498C35.0833 15.3831 35.2 15.6665 35.2 15.9998C35.2 16.3331 35.0833 16.6165 34.85 16.8498C34.6167 17.0831 34.3333 17.1998 34 17.1998V17.1998M34 31.6998C33.8 31.6998 33.6333 31.6331 33.5 31.4998C33.3667 31.3665 33.3 31.1998 33.3 30.9998C33.3 30.7998 33.3667 30.6331 33.5 30.4998C33.6333 30.3665 33.8 30.2998 34 30.2998C34.2 30.2998 34.3667 30.3665 34.5 30.4998C34.6333 30.6331 34.7 30.7998 34.7 30.9998C34.7 31.1998 34.6333 31.3665 34.5 31.4998C34.3667 31.6331 34.2 31.6998 34 31.6998V31.6998M34 13.6998C33.8 13.6998 33.6333 13.6331 33.5 13.4998C33.3667 13.3665 33.3 13.1998 33.3 12.9998C33.3 12.7998 33.3667 12.6331 33.5 12.4998C33.6333 12.3665 33.8 12.2998 34 12.2998C34.2 12.2998 34.3667 12.3665 34.5 12.4998C34.6333 12.6331 34.7 12.7998 34.7 12.9998C34.7 13.1998 34.6333 13.3665 34.5 13.4998C34.3667 13.6331 34.2 13.6998 34 13.6998V13.6998M38 29.1998C37.6667 29.1998 37.3833 29.0831 37.15 28.8498C36.9167 28.6165 36.8 28.3331 36.8 27.9998C36.8 27.6665 36.9167 27.3831 37.15 27.1498C37.3833 26.9165 37.6667 26.7998 38 26.7998C38.3333 26.7998 38.6167 26.9165 38.85 27.1498C39.0833 27.3831 39.2 27.6665 39.2 27.9998C39.2 28.3331 39.0833 28.6165 38.85 28.8498C38.6167 29.0831 38.3333 29.1998 38 29.1998V29.1998M38 25.1998C37.6667 25.1998 37.3833 25.0831 37.15 24.8498C36.9167 24.6165 36.8 24.3331 36.8 23.9998C36.8 23.6665 36.9167 23.3831 37.15 23.1498C37.3833 22.9165 37.6667 22.7998 38 22.7998C38.3333 22.7998 38.6167 22.9165 38.85 23.1498C39.0833 23.3831 39.2 23.6665 39.2 23.9998C39.2 24.3331 39.0833 24.6165 38.85 24.8498C38.6167 25.0831 38.3333 25.1998 38 25.1998V25.1998M38 21.1998C37.6667 21.1998 37.3833 21.0831 37.15 20.8498C36.9167 20.6165 36.8 20.3331 36.8 19.9998C36.8 19.6665 36.9167 19.3831 37.15 19.1498C37.3833 18.9165 37.6667 18.7998 38 18.7998C38.3333 18.7998 38.6167 18.9165 38.85 19.1498C39.0833 19.3831 39.2 19.6665 39.2 19.9998C39.2 20.3331 39.0833 20.6165 38.85 20.8498C38.6167 21.0831 38.3333 21.1998 38 21.1998V21.1998M38 17.1998C37.6667 17.1998 37.3833 17.0831 37.15 16.8498C36.9167 16.6165 36.8 16.3331 36.8 15.9998C36.8 15.6665 36.9167 15.3831 37.15 15.1498C37.3833 14.9165 37.6667 14.7998 38 14.7998C38.3333 14.7998 38.6167 14.9165 38.85 15.1498C39.0833 15.3831 39.2 15.6665 39.2 15.9998C39.2 16.3331 39.0833 16.6165 38.85 16.8498C38.6167 17.0831 38.3333 17.1998 38 17.1998V17.1998M41 24.6998C40.8 24.6998 40.6333 24.6331 40.5 24.4998C40.3667 24.3665 40.3 24.1998 40.3 23.9998C40.3 23.7998 40.3667 23.6331 40.5 23.4998C40.6333 23.3665 40.8 23.2998 41 23.2998C41.2 23.2998 41.3667 23.3665 41.5 23.4998C41.6333 23.6331 41.7 23.7998 41.7 23.9998C41.7 24.1998 41.6333 24.3665 41.5 24.4998C41.3667 24.6331 41.2 24.6998 41 24.6998V24.6998M41 20.6998C40.8 20.6998 40.6333 20.6331 40.5 20.4998C40.3667 20.3665 40.3 20.1998 40.3 19.9998C40.3 19.7998 40.3667 19.6331 40.5 19.4998C40.6333 19.3665 40.8 19.2998 41 19.2998C41.2 19.2998 41.3667 19.3665 41.5 19.4998C41.6333 19.6331 41.7 19.7998 41.7 19.9998C41.7 20.1998 41.6333 20.3665 41.5 20.4998C41.3667 20.6331 41.2 20.6998 41 20.6998V20.6998" fill="#1000A9"/>
<defs>
<filter id="filter0_dd_230_329" x="0" y="0" width="64" height="64" filterUnits="userSpaceOnUse" color-interpolation-filters="sRGB">
<feFlood flood-opacity="0" result="BackgroundImageFix"/>
<feColorMatrix in="SourceAlpha" type="matrix" values="0 0 0 0 0 0 0 0 0 0 0 0 0 0 0 0 0 0 127 0" result="hardAlpha"/>
<feMorphology radius="4" operator="erode" in="SourceAlpha" result="effect1_dropShadow_230_329"/>
<feOffset dy="4"/>
<feGaussianBlur stdDeviation="3"/>
<feComposite in2="hardAlpha" operator="out"/>
<feColorMatrix type="matrix" values="0 0 0 0 0.752941 0 0 0 0 0.756863 0 0 0 0 1 0 0 0 0.2 0"/>
<feBlend mode="normal" in2="BackgroundImageFix" result="effect1_dropShadow_230_329"/>
<feColorMatrix in="SourceAlpha" type="matrix" values="0 0 0 0 0 0 0 0 0 0 0 0 0 0 0 0 0 0 127 0" result="hardAlpha"/>
<feMorphology radius="3" operator="erode" in="SourceAlpha" result="effect2_dropShadow_230_329"/>
<feOffset dy="10"/>
<feGaussianBlur stdDeviation="7.5"/>
<feComposite in2="hardAlpha" operator="out"/>
<feColorMatrix type="matrix" values="0 0 0 0 0.752941 0 0 0 0 0.756863 0 0 0 0 1 0 0 0 0.2 0"/>
<feBlend mode="normal" in2="effect1_dropShadow_230_329" result="effect2_dropShadow_230_329"/>
<feBlend mode="normal" in="SourceGraphic" in2="effect2_dropShadow_230_329" result="shape"/>
</filter>
</defs>
</svg>